<?xml version="1.0" encoding="UTF-8" standalone="no"?>
<svg
   xmlns:dc="http://purl.org/dc/elements/1.1/"
   xmlns:cc="http://creativecommons.org/ns#"
   xmlns:rdf="http://www.w3.org/1999/02/22-rdf-syntax-ns#"
   xmlns:svg="http://www.w3.org/2000/svg"
   xmlns="http://www.w3.org/2000/svg"
   xmlns:sodipodi="http://sodipodi.sourceforge.net/DTD/sodipodi-0.dtd"
   xmlns:inkscape="http://www.inkscape.org/namespaces/inkscape"
   xml:space="preserve"
   width="155"
   height="42"
   style="clip-rule:evenodd;fill-rule:evenodd;image-rendering:optimizeQuality;shape-rendering:geometricPrecision;text-rendering:geometricPrecision"
   viewBox="0 0 1.6145832 0.43750338"
   version="1.1"
   id="svg53"
   sodipodi:docname="logo.svg"
   inkscape:version="0.92.4 (5da689c313, 2019-01-14)"><sodipodi:namedview
   pagecolor="#ffffff"
   bordercolor="#666666"
   borderopacity="1"
   objecttolerance="10"
   gridtolerance="10"
   guidetolerance="10"
   inkscape:pageopacity="1"
   inkscape:pageshadow="2"
   inkscape:window-width="2560"
   inkscape:window-height="1351"
   id="namedview26"
   showgrid="false"
   fit-margin-top="2"
   fit-margin-left="4"
   fit-margin-right="4"
   fit-margin-bottom="2"
   inkscape:zoom="3.9176772"
   inkscape:cx="147.76605"
   inkscape:cy="3.4223282"
   inkscape:window-x="2551"
   inkscape:window-y="-9"
   inkscape:window-maximized="1"
   inkscape:current-layer="svg53" /><metadata
   id="metadata57"><rdf:RDF><cc:Work
       rdf:about=""><dc:format>image/svg+xml</dc:format><dc:type
         rdf:resource="http://purl.org/dc/dcmitype/StillImage" /><dc:title></dc:title></cc:Work></rdf:RDF></metadata>
 <defs
   id="defs7">
  <style
   type="text/css"
   id="style2">
   <![CDATA[
    .fil4 {fill:none}
    .fil5 {fill:#FEFEFE}
    .fil3 {fill:#003C66}
    .fil2 {fill:#013357}
    .fil6 {fill:white}
    .fil0 {fill:#013357;fill-rule:nonzero}
    .fil1 {fill:#333333;fill-rule:nonzero}
    .fil7 {fill:#A10000;fill-rule:nonzero}
   ]]>
  </style>
    <clipPath
   id="id0">
     <path
   d="m 0.645788,0.098882 c -0.302048,0 -0.546906,0.244859 -0.546906,0.546906 0,0.302048 0.244859,0.546906 0.546906,0.546906 0.302048,0 0.546906,-0.244859 0.546906,-0.546906 0,-0.302048 -0.244859,-0.546906 -0.546906,-0.546906 z"
   id="path4"
   inkscape:connector-curvature="0" />
    </clipPath>
 
  
  
 
   
   
   
   
   
   
   
   
   
   
   
   
   
   
   
   
   
   
  </defs>
 <rect
   style="fill:#ffffff;fill-opacity:1;stroke:none;stroke-width:0.90998656;stroke-miterlimit:4;stroke-dasharray:none;stroke-opacity:1"
   id="rect835"
   width="1.6145958"
   height="0.43750337"
   x="-6.296671e-06"
   y="6.1724661e-09"
   ry="0" /><g
   id="g851"
   transform="translate(-6.5451415e-4,-2.3308632e-4)"><circle
     style="opacity:1;fill:#ffffff;fill-opacity:1;fill-rule:evenodd;stroke:none;stroke-width:0.01208027;stroke-linecap:square;stroke-miterlimit:4;stroke-dasharray:none;stroke-dashoffset:0;stroke-opacity:1"
     id="path832"
     cx="0.24041365"
     cy="0.21838358"
     r="0.18990067" /><g
     transform="matrix(0.30683642,0,0,0.30683642,0.0256859,0.00485231)"
     id="g856"><g
       id="g3855"
       transform="translate(0.05206399,0.05208374)"><path
         inkscape:connector-curvature="0"
         style="fill:#013357"
         d="M 0.645788,0 C 0.28913,0 0,0.28913 0,0.645788 c 0,0.356658 0.28913,0.645788 0.645788,0.645788 0.356658,0 0.645788,-0.28913 0.645788,-0.645788 C 1.291576,0.28913 1.002446,0 0.645788,0 Z m 0,0.033189 c -0.338327,0 -0.612595,0.274272 -0.612595,0.612599 0,0.338327 0.274268,0.612599 0.612595,0.612599 0.338327,0 0.612599,-0.274272 0.612599,-0.612599 0,-0.338327 -0.274272,-0.612599 -0.612599,-0.612599 z"
         class="fil2"
         id="_214580120" /><path
         inkscape:connector-curvature="0"
         style="fill:#013357"
         d="m 0.645788,0.098882 c -0.302048,0 -0.546906,0.244859 -0.546906,0.546906 0,0.302048 0.244859,0.546906 0.546906,0.546906 0.302048,0 0.546906,-0.244859 0.546906,-0.546906 0,-0.302048 -0.244859,-0.546906 -0.546906,-0.546906 z"
         class="fil2"
         id="_214579952" /><path
         inkscape:connector-curvature="0"
         style="fill:#fefefe"
         d="M 0.410859,0.731847 0.3767802,0.835642 0.6209222,0.837059 0.5883198,0.7392282 C 0.5739773,0.7733148 0.5402646,0.7972519 0.5009614,0.7972519 c -0.0420788,0 -0.0777481,-0.027441 -0.0901024,-0.0654049 z"
         class="fil5"
         id="_214579784" /><polygon
         style="fill:#fefefe"
         points="1.02898,0.706461 0.951965,0.706461 0.970162,0.775465 1.01064,0.775465 "
         class="fil5"
         id="_214579616" /><polygon
         style="fill:#fefefe"
         points="0.99993,0.786115 0.981021,0.786115 0.990525,0.875379 "
         class="fil5"
         id="_214579448" /><path
         inkscape:connector-curvature="0"
         style="fill:#fefefe"
         d="M 0.92795,0.569241 0.774623,0.4702881 C 0.8104931,0.4585086 0.8363868,0.4247605 0.8363868,0.3849534 c 0,-0.00852 -0.001181,-0.0167677 -0.003402,-0.0245788 l 0.151689,0.123937 c -0.0334646,0.003008 -0.059693,0.0311221 -0.059693,0.0653662 0,0.006815 0.001039,0.0133819 0.002969,0.0195632 z"
         class="fil5"
         id="_214579280" /><path
         inkscape:connector-curvature="0"
         style="fill:#fefefe"
         d="M 0.744863,0.474741 0.595631,0.705985 c 4.331e-5,-0.00115 7.087e-5,-0.002311 7.087e-5,-0.003472 0,-0.0523189 -0.0424174,-0.0947363 -0.0947402,-0.0947363 -0.0125433,0 -0.0245158,0.002445 -0.0354725,0.00687 l 0.191398,-0.234252 c -7.481e-5,0.001512 -1.1024e-4,0.003032 -1.1024e-4,0.004559 0,0.0490237 0.0392796,0.0888741 0.0880861,0.0897873 z"
         class="fil5"
         id="_214579112" /><path
         inkscape:connector-curvature="0"
         style="fill:#fefefe"
         d="m 0.500957,0.625284 c -0.0426536,0 -0.0772284,0.0345748 -0.0772284,0.0772324 0,0.0426536 0.0345748,0.0772324 0.0772284,0.0772324 0.0426575,0 0.0772324,-0.0345788 0.0772324,-0.0772324 0,-0.0426575 -0.0345748,-0.0772324 -0.0772324,-0.0772324 z m 0,0.0380867 c 0.0216181,0 0.0391457,0.0175276 0.0391457,0.0391457 0,0.0216181 -0.0175276,0.0391457 -0.0391457,0.0391457 -0.0216181,0 -0.0391457,-0.0175276 -0.0391457,-0.0391457 0,-0.0216181 0.0175276,-0.0391457 0.0391457,-0.0391457 z"
         class="fil5"
         id="_214578944" /><path
         inkscape:connector-curvature="0"
         style="fill:#fefefe"
         d="m 0.643284,0.848461 h -0.28741 c -0.005839,0 -0.0106102,0.004772 -0.0106102,0.0106102 v 0.0276181 h 0.30717 V 0.8576105 c 0,-0.005039 -0.004114,-0.00915 -0.00915,-0.00915 z"
         class="fil5"
         id="_214578776" /><path
         inkscape:connector-curvature="0"
         style="fill:#fefefe"
         d="M 0.669363,0.900304 H 0.330437 c -0.0139016,0 -0.0252717,0.0113701 -0.0252717,0.0252717 v 0.0434174 h 0.387363 V 0.9234694 C 0.6925283,0.9107292 0.682107,0.900304 0.669363,0.900304 Z"
         class="fil5"
         id="_214578608" /><path
         inkscape:connector-curvature="0"
         style="fill:#fefefe"
         d="m 1.04149,0.549682 c 0,-0.0281024 -0.022776,-0.050878 -0.050878,-0.050878 -0.0280945,0 -0.0508701,0.0227756 -0.0508701,0.050878 0,0.0280945 0.0227756,0.0508741 0.0508701,0.0508741 0.0281024,0 0.050878,-0.0227795 0.050878,-0.0508741 z M 0.9906159,0.5215639 c 0.0155236,0 0.0281142,0.0125906 0.0281142,0.0281142 0,0.0155236 -0.012591,0.0281142 -0.0281142,0.0281142 -0.0155236,0 -0.0281142,-0.0125906 -0.0281142,-0.0281142 0,-0.0155236 0.0125906,-0.0281142 0.0281142,-0.0281142 z"
         class="fil5"
         id="_214578440" /><path
         inkscape:connector-curvature="0"
         style="fill:#ffffff"
         d="m 1.0468,0.581138 v 0.0936812 c 0,0.0110433 -0.00903,0.0200748 -0.020071,0.0200748 H 0.9553747 c -0.0110433,0 -0.0200748,-0.009031 -0.0200748,-0.0200748 V 0.582886 c 0.0103662,0.0199843 0.0312481,0.0336378 0.055315,0.0336378 0.0247638,0 0.0461536,-0.0144567 0.0561851,-0.0353858 z"
         class="fil6"
         id="_214578272" /><path
         inkscape:connector-curvature="0"
         style="fill:#fefefe"
         d="m 0.820107,0.384957 c 0,-0.0406142 -0.0329134,-0.0735316 -0.0735276,-0.0735316 -0.0406142,0 -0.0735316,0.0329174 -0.0735316,0.0735316 0,0.0406103 0.0329174,0.0735316 0.0735316,0.0735316 0.0406142,0 0.0735276,-0.0329213 0.0735276,-0.0735316 z M 0.7465754,0.3470436 c 0.020937,0 0.0379134,0.0169764 0.0379134,0.0379134 0,0.020937 -0.0169764,0.0379134 -0.0379134,0.0379134 -0.020937,0 -0.0379134,-0.0169764 -0.0379134,-0.0379134 0,-0.020937 0.0169764,-0.0379134 0.0379134,-0.0379134 z"
         class="fil5"
         id="_214578104" /></g></g><path
     inkscape:connector-curvature="0"
     style="fill:#013357;fill-rule:nonzero;stroke-width:0.39310944"
     d="M 0.72401745,0.3056139 H 0.67423955 L 0.62849035,0.2368645 h -0.047512 v 0.0687494 h -0.041803 V 0.12933342 h 0.12893559 c 0.0146072,0 0.0266945,0.005667 0.0362636,0.0169981 0.009569,0.0113336 0.0143548,0.0247211 0.0143548,0.0401668 0,0.012256 -0.004114,0.0226656 -0.0123396,0.0312275 -0.008228,0.008561 -0.0186357,0.0139336 -0.0312275,0.0161175 z M 0.66786022,0.18473589 c 0,-0.008227 -0.003065,-0.0145637 -0.009192,-0.0190131 -0.006128,-0.004448 -0.0143948,-0.006674 -0.0248044,-0.006674 h -0.0528844 v 0.0493585 h 0.0541437 c 0.007891,0 0.0149414,-0.001762 0.0211536,-0.005287 0.007723,-0.004364 0.0115846,-0.0104917 0.0115835,-0.0183844 z m 0.21052738,0.0551512 c 0,0.0226642 -0.007218,0.0400397 -0.0216567,0.0521271 -0.0132637,0.0110813 -0.0313112,0.016622 -0.0541437,0.016622 -0.022833,0 -0.0405445,-0.005037 -0.0531346,-0.01511 -0.0146072,-0.0115843 -0.0219103,-0.0296317 -0.0219103,-0.0541437 0,-0.020482 0.007893,-0.0365995 0.023673,-0.0483509 0.0141025,-0.0105768 0.0314783,-0.0158652 0.0521271,-0.0158652 0.022666,0 0.0408385,0.005667 0.0545216,0.0169981 0.013683,0.0113321 0.0205239,0.0272405 0.0205236,0.0477226 z M 0.8393538,0.23963481 c 0,-0.0105767 -0.003313,-0.0194327 -0.009948,-0.0265674 -0.006631,-0.007136 -0.0156548,-0.0107038 -0.0270719,-0.0107038 -0.0104074,0 -0.0190116,0.003653 -0.0258124,0.0109545 -0.006799,0.007303 -0.0101997,0.0164951 -0.0101997,0.0275765 0,0.012759 0.003444,0.0229149 0.010326,0.0304707 0.006883,0.007553 0.0157803,0.0113321 0.026693,0.0113321 0.0124247,0 0.0216584,-0.003944 0.0277021,-0.0118367 0.005541,-0.007218 0.00831,-0.0176281 0.008311,-0.0312259 z m 0.194665,-5.031e-4 c 0,0.0176264 -0.0047,0.0328215 -0.014103,0.0455807 -0.010242,0.0139336 -0.023421,0.0209014 -0.0395369,0.0209014 H 0.8985347 v -0.1762805 h 0.035256 v 0.045833 h 0.0470909 c 0.0156131,0 0.0285405,0.006631 0.0387818,0.0198953 0.00957,0.0124232 0.014355,0.0271122 0.014355,0.0440701 z m -0.036767,0.001258 c 0,-0.009905 -0.00294,-0.0186775 -0.008814,-0.0263166 -0.005876,-0.007638 -0.0133473,-0.0114574 -0.0224135,-0.0114574 H 0.9337909 v 0.074793 h 0.0339962 c 0.008731,0 0.0158235,-0.003736 0.021279,-0.0112068 0.005458,-0.00747 0.008186,-0.0160741 0.008186,-0.0258122 z m 0.2027211,-5.0279e-4 c 0,0.0226642 -0.00722,0.0400397 -0.021656,0.0521271 -0.013264,0.0110814 -0.031311,0.016622 -0.054144,0.016622 -0.022834,0 -0.040545,-0.005037 -0.053134,-0.01511 -0.014608,-0.0115843 -0.02191,-0.0296317 -0.02191,-0.0541437 0,-0.020482 0.00789,-0.0365995 0.023673,-0.0483509 0.014102,-0.0105767 0.031479,-0.0158653 0.052127,-0.0158653 0.022666,0 0.040838,0.005667 0.054522,0.0169982 0.013682,0.0113322 0.020524,0.0272407 0.020524,0.0477224 z m -0.039034,-2.5184e-4 c 0,-0.0105767 -0.00331,-0.0194327 -0.00994,-0.0265675 -0.00663,-0.007136 -0.015654,-0.0107038 -0.027072,-0.0107038 -0.010409,0 -0.019012,0.003653 -0.025812,0.0109544 -0.0068,0.007303 -0.010198,0.0164951 -0.010198,0.0275765 0,0.012759 0.00345,0.0229149 0.010326,0.0304707 0.00688,0.007553 0.01578,0.011332 0.026692,0.011332 0.012425,0 0.021659,-0.003944 0.027702,-0.0118367 0.00554,-0.007218 0.00831,-0.0176281 0.00831,-0.031226 z"
     class="fil0"
     id="_214580408" /><path
     inkscape:connector-curvature="0"
     style="fill:#a10000;fill-rule:nonzero;stroke-width:0.39310944"
     d="m 1.3440887,0.13557679 c 0.014163,0.005397 0.025374,0.0164394 0.033636,0.0331311 0.00758,0.0153436 0.011381,0.0327101 0.011381,0.0520996 0,0.0207373 -0.00421,0.0387786 -0.012645,0.0541205 -0.00911,0.0168603 -0.021666,0.0268924 -0.037683,0.0300961 -0.00624,0.001182 -0.013235,0.00177 -0.020991,0.00177 H 1.2224393 V 0.12976093 h 0.090034 c 0.010623,0 0.021161,0.001939 0.031614,0.005815 z m 0.00455,0.0859887 c 0,-0.0163542 -0.00244,-0.0297587 -0.00734,-0.0402116 -0.00624,-0.013152 -0.01568,-0.0197268 -0.028326,-0.0197268 h -0.049314 v 0.11456508 l 0.052606,2.5382e-4 c 0.011465,0 0.019979,-0.005987 0.025542,-0.0179561 0.00455,-0.00978 0.00683,-0.0220869 0.00683,-0.0369245 z m 0.2255925,-0.0918052 -0.078653,0.0872518 0.076124,0.0897823 h -0.054878 l -0.067273,-0.0900347 0.069801,-0.0869994 z M 1.4482864,0.30679441 H 1.4090853 V 0.12976033 h 0.039201 z"
     class="fil7"
     id="_214578008" /></g>
</svg>