<?xml version="1.0" encoding="UTF-8" standalone="no"?>
<!-- Creator: CorelDRAW -->

<svg
   xmlns:dc="http://purl.org/dc/elements/1.1/"
   xmlns:cc="http://creativecommons.org/ns#"
   xmlns:rdf="http://www.w3.org/1999/02/22-rdf-syntax-ns#"
   xmlns:svg="http://www.w3.org/2000/svg"
   xmlns="http://www.w3.org/2000/svg"
   xmlns:xlink="http://www.w3.org/1999/xlink"
   xmlns:sodipodi="http://sodipodi.sourceforge.net/DTD/sodipodi-0.dtd"
   xmlns:inkscape="http://www.inkscape.org/namespaces/inkscape"
   xml:space="preserve"
   width="259.6264"
   height="50.990501"
   style="clip-rule:evenodd;fill-rule:evenodd;image-rendering:optimizeQuality;shape-rendering:geometricPrecision;text-rendering:geometricPrecision"
   viewBox="0 0 2.7044507 0.53115387"
   version="1.1"
   id="svg21"
   sodipodi:docname="logo.svg"
   inkscape:version="0.92.1 r15371"><metadata
     id="metadata25"><rdf:RDF><cc:Work
         rdf:about=""><dc:format>image/svg+xml</dc:format><dc:type
           rdf:resource="http://purl.org/dc/dcmitype/StillImage" /><dc:title></dc:title></cc:Work></rdf:RDF></metadata><sodipodi:namedview
     pagecolor="#ffffff"
     bordercolor="#666666"
     borderopacity="1"
     objecttolerance="10"
     gridtolerance="10"
     guidetolerance="10"
     inkscape:pageopacity="0"
     inkscape:pageshadow="2"
     inkscape:window-width="1920"
     inkscape:window-height="1011"
     id="namedview23"
     showgrid="false"
     fit-margin-top="5"
     fit-margin-left="0"
     fit-margin-right="70"
     fit-margin-bottom="5"
     inkscape:zoom="2.9933595"
     inkscape:cx="69.856834"
     inkscape:cy="-47.628899"
     inkscape:window-x="-8"
     inkscape:window-y="-8"
     inkscape:window-maximized="1"
     inkscape:current-layer="svg21"
     units="px" /><defs
     id="defs15"><style
       type="text/css"
       id="style2"><![CDATA[
    .fil0 {fill:url(#id0)}
   ]]></style><linearGradient
       id="id0"
       gradientUnits="userSpaceOnUse"
       x1="1.41298"
       y1="-0.62338698"
       x2="4.5713902"
       y2="2.5350399"
       gradientTransform="matrix(0.22882048,0,0,0.22882048,0.05208188,0.05208162)"><stop
         offset="0"
         style="stop-color:#848688"
         id="stop4" /><stop
         offset="0.25098"
         style="stop-color:#FEFEFE"
         id="stop6" /><stop
         offset="0.501961"
         style="stop-color:#848688"
         id="stop8" /><stop
         offset="0.74902"
         style="stop-color:#FEFEFE"
         id="stop10" /><stop
         offset="1"
         style="stop-color:#848688"
         id="stop12" /></linearGradient><linearGradient
       inkscape:collect="always"
       xlink:href="#id0"
       id="linearGradient4619"
       gradientUnits="userSpaceOnUse"
       gradientTransform="matrix(0.34103165,0,0,0.34103165,-0.06558502,-0.05796344)"
       x1="1.41298"
       y1="-0.62338698"
       x2="4.5713902"
       y2="2.5350399" /><linearGradient
       inkscape:collect="always"
       xlink:href="#id0"
       id="linearGradient4621"
       gradientUnits="userSpaceOnUse"
       gradientTransform="matrix(0.22335934,0,0,0.22335934,-2.7071622e-6,0.05208167)"
       x1="1.41298"
       y1="-0.62338698"
       x2="4.5713902"
       y2="2.5350399" /></defs><path
     id="path4573"
     style="fill:url(#linearGradient4621);stroke-width:0.22335933"
     d="m 0.21348811,0.06305549 c -0.11184876,0 -0.20251969,0.09067273 -0.20251969,0.20252147 0,0.11184876 0.09067089,0.20252149 0.20251969,0.20252149 0.11184875,0 0.20252147,-0.0906728 0.20252147,-0.20252149 0,-0.11184874 -0.0906727,-0.20252147 -0.20252147,-0.20252147 z m 0,-0.01097188 c -0.11790671,0 -0.2134906671622,0.09558395 -0.2134906671622,0.21349333 0,0.11790939 0.095583977162,0.21349334 0.2134906671622,0.21349334 0.11790937,0 0.21349333,-0.095584 0.21349333,-0.21349334 0,-0.11790938 -0.095584,-0.21349333 -0.21349333,-0.21349333 z m -0.0776659,0.24194283 -0.0112656,0.0343156 0.0807129,4.6682e-4 -0.0107802,-0.0323431 c -0.004741,0.0112683 -0.0158849,0.0191826 -0.0288802,0.0191826 -0.0139099,0 -0.0257031,-0.009071 -0.029787,-0.021623 z m 0.17888648,-0.008392 0.006017,0.0228117 h 0.013383 l 0.006061,-0.0228117 z m 0.009607,0.0263319 0.00314,0.0295098 0.003108,-0.0295098 z m -0.0175468,-0.0716958 -0.0506878,-0.0327143 c 0.0118575,-0.003893 0.0204182,-0.0150504 0.0204182,-0.0282109 0,-0.002816 -3.9087e-4,-0.005543 -0.001125,-0.008125 l 0.0501477,0.0409723 c -0.0110641,9.9566e-4 -0.0197356,0.0102895 -0.0197356,0.0216096 0,0.002254 3.4398e-4,0.004425 9.825e-4,0.006468 z m -0.060527,-0.0312414 -0.0493336,0.0764478 c 1.231e-5,-3.7971e-4 2.286e-5,-7.6612e-4 2.286e-5,-0.001148 0,-0.0172954 -0.0140233,-0.0313196 -0.0313224,-0.0313196 -0.004146,0 -0.008105,8.09e-4 -0.0117255,0.002272 l 0.0632741,-0.0774434 c -2.55e-5,4.9853e-4 -3.605e-5,0.001002 -3.605e-5,0.001506 0,0.0162076 0.0129848,0.0293816 0.0291206,0.0296852 z m -0.0806329,0.0623598 c 0.007146,0 0.0129408,0.005794 0.0129408,0.0129408 0,0.007146 -0.005794,0.0129408 -0.0129408,0.0129408 -0.007145,0 -0.0129408,-0.005794 -0.0129408,-0.0129408 0,-0.007146 0.005795,-0.0129408 0.0129408,-0.0129408 z m 0,-0.0125917 c -0.0141006,0 -0.0255324,0.0114309 -0.0255324,0.0255324 0,0.0141015 0.0114318,0.0255324 0.0255324,0.0255324 0.0141015,0 0.0255333,-0.0114308 0.0255333,-0.0255324 0,-0.0141015 -0.0114318,-0.0255324 -0.0255333,-0.0255324 z m 0.0470545,0.0737808 h -0.0950151 c -0.001931,0 -0.003507,0.001576 -0.003507,0.003507 v 0.009134 h 0.10154608 v -0.009618 c 0,-0.001664 -0.00136,-0.003023 -0.003024,-0.003023 z m 0.008619,0.0171406 H 0.10923523 c -0.004596,0 -0.008353,0.003757 -0.008353,0.008353 v 0.014354 h 0.12805904 v -0.0150495 c 0,-0.004212 -0.003446,-0.007658 -0.007659,-0.007657 z m 0.1062035,-0.12521079 c 0.005133,0 0.009294,0.004164 0.009294,0.009294 0,0.005133 -0.004161,0.009294 -0.009294,0.009294 -0.005131,0 -0.009294,-0.004161 -0.009294,-0.009294 0,-0.005131 0.004164,-0.009294 0.009294,-0.009294 z m 0.0168194,0.009297 c 0,-0.009292 -0.007531,-0.0168205 -0.0168197,-0.0168205 -0.009289,0 -0.0168178,0.007529 -0.0168178,0.0168205 0,0.009286 0.007529,0.016817 0.0168178,0.016817 0.009289,0 0.0168197,-0.007531 0.0168197,-0.016817 z m 0.001756,0.0104003 v 0.0309678 c 0,0.003652 -0.002985,0.006637 -0.006635,0.006637 h -0.0235889 c -0.003652,0 -0.006637,-0.002984 -0.006637,-0.006637 v -0.0303918 c 0.003427,0.006605 0.0103299,0.0111214 0.0182855,0.0111214 0.008188,0 0.0152588,-0.004778 0.0185754,-0.0116974 z m -0.0992544,-0.0773916 c 0.006922,0 0.0125354,0.005614 0.0125354,0.0125345 0,0.006922 -0.005614,0.0125328 -0.0125354,0.0125328 -0.006921,0 -0.0125318,-0.005611 -0.0125318,-0.0125328 0,-0.006921 0.005611,-0.0125345 0.0125318,-0.0125345 z m 0.0243102,0.0125345 c 0,-0.0134262 -0.0108805,-0.0243102 -0.0243075,-0.0243102 -0.0134261,0 -0.0243102,0.0108839 -0.0243102,0.0243102 0,0.0134245 0.010884,0.0243076 0.0243102,0.0243076 0.013427,0 0.0243075,-0.0108831 0.0243075,-0.0243076 z m -0.0576291,-0.0945755 c -0.0998541,0 -0.18080179,0.08095034 -0.18080179,0.18080357 0,0.0998533 0.08094762,0.18080358 0.18080179,0.18080358 0.0998559,0 0.18080358,-0.0809504 0.18080358,-0.18080358 0,-0.0998532 -0.0809476,-0.18080357 -0.18080358,-0.18080357 z"
     inkscape:connector-curvature="0" /><path
     id="path18"
     style="fill:url(#linearGradient4619);stroke-width:0.34103164"
     d="m 0.81148113,0.17741503 c 0,-0.0105589 -0.003933,-0.0187016 -0.0118024,-0.0244119 -0.007868,-0.005713 -0.018483,-0.00857 -0.0318489,-0.00857 h -0.0679059 v 0.0633783 h 0.0695237 c 0.0101306,0 0.0191823,-0.002266 0.0271617,-0.006791 0.009912,-0.005603 0.0148726,-0.0134716 0.0148718,-0.0236054 z m 0.22020337,0.0704891 c 0,-0.0135774 -0.00426,-0.0249505 -0.012775,-0.0341099 -0.00851,-0.009163 -0.020103,-0.0137444 -0.034757,-0.0137444 -0.013366,0 -0.024416,0.004689 -0.033145,0.0140677 -0.008736,0.009376 -0.0130978,0.0211789 -0.0130978,0.0354043 0,0.0163843 0.004422,0.0294268 0.0132598,0.0391263 0.00883,0.009701 0.020264,0.0145506 0.034272,0.0145506 0.015953,0 0.027807,-0.005063 0.03557,-0.0151973 0.00712,-0.009269 0.01067,-0.0226344 0.01067,-0.0400973 z m 0.05012,3.2359e-4 c 0,0.0291032 -0.00926,0.0514153 -0.027809,0.0669349 -0.017031,0.0142288 -0.040203,0.0213415 -0.069518,0.0213415 -0.02932,0 -0.0520631,-0.006468 -0.0682291,-0.0194 -0.0187527,-0.0148726 -0.0281325,-0.0380492 -0.0281325,-0.0695197 0,-0.026301 0.0101349,-0.0469938 0.0303976,-0.0620841 0.0181043,-0.0135835 0.0404163,-0.0203706 0.0669307,-0.0203706 0.029101,0 0.05244,0.007273 0.070008,0.021826 0.017568,0.0145507 0.026352,0.0349746 0.026352,0.061272 z M 1.2344256,0.248875 c 0,-0.0127175 -0.00378,-0.0239796 -0.011317,-0.0337904 -0.00755,-0.009807 -0.017139,-0.0147117 -0.028779,-0.0147117 h -0.041387 v 0.0960386 h 0.043652 c 0.011208,0 0.020314,-0.0048 0.027323,-0.0143911 0.00701,-0.009593 0.010506,-0.0206393 0.010506,-0.0331452 z M 1.2816336,0.24726 c 0,0.0226317 -0.00603,0.0421417 -0.018105,0.0585261 -0.013153,0.0178922 -0.030074,0.0268368 -0.050768,0.0268368 H 1.1076717 V 0.10627804 h 0.04527 v 0.0588523 h 0.060466 c 0.020047,0 0.036644,0.008513 0.049797,0.0255438 0.012284,0.0159506 0.018428,0.0348122 0.018428,0.0565865 z m 0.1629726,6.432e-4 c 0,-0.0135774 -0.00427,-0.0249506 -0.012773,-0.0341099 -0.00851,-0.009163 -0.020102,-0.0137444 -0.034758,-0.0137444 -0.013368,0 -0.024416,0.004689 -0.033143,0.0140678 -0.00874,0.009376 -0.0131,0.0211789 -0.0131,0.0354043 0,0.0163843 0.00443,0.0294269 0.013265,0.0391262 0.00884,0.009701 0.020264,0.0145507 0.034273,0.0145507 0.015955,0 0.027809,-0.005063 0.03557,-0.0151974 0.00712,-0.009269 0.010671,-0.0226345 0.010671,-0.0400967 z m 0.050121,3.2356e-4 c 0,0.0291032 -0.00926,0.0514153 -0.027809,0.0669349 -0.017031,0.0142288 -0.040203,0.0213415 -0.069519,0.0213415 -0.029319,0 -0.052061,-0.006468 -0.068229,-0.0194 -0.018752,-0.0148726 -0.02813,-0.0380492 -0.02813,-0.0695196 0,-0.0263011 0.010135,-0.0469938 0.030396,-0.0620841 0.018106,-0.0135834 0.040417,-0.0203706 0.066932,-0.0203706 0.029102,0 0.052441,0.007273 0.070008,0.021826 0.017568,0.0145506 0.026353,0.0349745 0.026352,0.061272 z M 0.68848945,0.39291008 c 0,-0.002541 -9.4806e-4,-0.004499 -0.002838,-0.005875 -0.001896,-0.001374 -0.004451,-0.00206 -0.007668,-0.00206 h -0.0163374 v 0.0152485 h 0.016728 c 0.002438,0 0.004617,-5.4567e-4 0.006536,-0.001634 0.002388,-0.001351 0.00358,-0.00324 0.00358,-0.005678 z m 0.0173521,0.037344 h -0.0153788 l -0.0141333,-0.0212421 h -0.0146804 v 0.0212421 h -0.0129141 v -0.0544629 h 0.0398361 c 0.004514,0 0.008246,0.001752 0.0112033,0.005252 0.002957,0.0035 0.004436,0.007639 0.004436,0.0124105 0,0.003783 -0.001269,0.007 -0.003812,0.009648 -0.002541,0.002647 -0.005757,0.004307 -0.009648,0.00498 z m 0.0539943,-0.0276222 c 0,-0.005339 -0.001269,-0.009593 -0.003812,-0.0127577 -0.002854,-0.003529 -0.007083,-0.005293 -0.0126832,-0.005293 -0.005501,0 -0.009648,0.001896 -0.0124507,0.00568 -0.002336,0.003165 -0.0035,0.007289 -0.0035,0.0123717 0,0.005864 9.3101e-4,0.0101932 0.002803,0.0129947 0.002592,0.003892 0.007391,0.005836 0.0143911,0.005836 0.005915,0 0.0100628,-0.001896 0.0124507,-0.005678 0.001865,-0.00296 0.002801,-0.007341 0.002801,-0.0131527 z m 0.0138487,3.1135e-4 c 0,0.0105832 -0.00293,0.0181566 -0.008794,0.0227216 -0.00477,0.003681 -0.0117203,0.005524 -0.0208513,0.005524 -0.0101136,0 -0.0175833,-0.002129 -0.0224061,-0.006382 -0.005291,-0.004668 -0.007935,-0.012166 -0.007935,-0.0224851 0,-0.008456 0.002358,-0.0150415 0.007077,-0.0197651 0.005134,-0.005134 0.0128099,-0.007702 0.0230305,-0.007702 0.0112539,0 0.0191946,0.002465 0.0238064,0.007393 0.00405,0.004356 0.006071,0.0112554 0.006071,0.0206942 z m 0.049094,0.0120602 c 0,-0.001814 -5.7293e-4,-0.003383 -0.001712,-0.004705 -0.001138,-0.001327 -0.002592,-0.001985 -0.004356,-0.001985 h -0.0183659 v 0.0126832 h 0.0187527 c 0.00166,0 0.003021,-5.8317e-4 0.004083,-0.001752 0.001064,-0.001169 0.001597,-0.002582 0.001597,-0.004241 z m -7.0252e-4,-0.0220153 c 0,-0.001872 -5.8319e-4,-0.003477 -0.001752,-0.004828 -0.001163,-0.001351 -0.002658,-0.002025 -0.004472,-0.002025 h -0.0171979 v 0.0129947 l 0.0178962,7.918e-5 c 0.00161,0 0.002933,-6.1384e-4 0.00397,-0.001827 0.001037,-0.001217 0.001554,-0.002687 0.001555,-0.004395 z m 0.0147817,0.0225593 c 0,0.004101 -0.001452,0.007577 -0.004355,0.0104296 -0.002906,0.002854 -0.006404,0.004277 -0.0105038,0.004277 h -0.0353224 v -0.0543854 h 0.033922 c 0.003996,0 0.007456,0.001169 0.0103893,0.0035 0.00293,0.002336 0.004601,0.005395 0.005016,0.009182 5.503e-5,3.115e-4 7.789e-5,6.1726e-4 7.789e-5,9.3101e-4 0,3.1151e-4 0,6.2409e-4 0,9.3444e-4 0,0.002906 -6.9912e-4,0.005458 -0.002097,0.007664 -0.001402,0.002206 -0.0035,0.00393 -0.006303,0.005174 0.002854,0.001037 0.005096,0.002623 0.006728,0.004747 0.001634,0.002129 0.002452,0.00464 0.002452,0.007544 z m 0.0576532,-0.0129141 c 0,-0.005339 -0.001269,-0.009593 -0.003812,-0.0127578 -0.002854,-0.003529 -0.007083,-0.005293 -0.0126832,-0.005293 -0.005501,0 -0.009648,0.001896 -0.0124507,0.00568 -0.002336,0.003165 -0.0035,0.007289 -0.0035,0.0123717 0,0.005864 9.3102e-4,0.0101932 0.002803,0.0129947 0.002592,0.003892 0.007391,0.005836 0.0143911,0.005836 0.005915,0 0.0100628,-0.001896 0.0124507,-0.005678 0.001865,-0.00296 0.002801,-0.007341 0.002801,-0.0131536 z m 0.0138487,3.115e-4 c 0,0.0105833 -0.00293,0.0181566 -0.008794,0.0227216 -0.00477,0.003681 -0.0117203,0.005524 -0.0208514,0.005524 -0.0101136,0 -0.0175831,-0.002129 -0.0224061,-0.006382 -0.005291,-0.004668 -0.007935,-0.012166 -0.007935,-0.0224851 0,-0.008456 0.002358,-0.0150414 0.007077,-0.0197651 0.005134,-0.005134 0.0128099,-0.007702 0.0230305,-0.007702 0.0112539,0 0.0191946,0.002465 0.0238064,0.007393 0.00405,0.004356 0.006071,0.0112554 0.006071,0.0206942 z m 0.0616975,-0.0177377 h -0.020307 v 0.045203 h -0.0126087 v -0.045203 h -0.0199946 v -0.009258 h 0.05291 z m 0.11071447,0.0188265 c 0,-0.005031 -7.537e-4,-0.009155 -0.00225,-0.0123717 -0.00192,-0.004044 -0.00482,-0.00607 -0.00872,-0.00607 h -0.015172 v 0.0352472 l 0.016183,7.786e-5 c 0.00353,0 0.00614,-0.001843 0.00786,-0.005523 0.0014,-0.003007 0.0021,-0.006795 0.0021,-0.0113608 z m -0.0014,-0.0264515 c 0.00435,0.001657 0.0078,0.005055 0.010347,0.0101932 0.00233,0.00472 0.00349,0.0100628 0.00349,0.0160257 0,0.00638 -0.0013,0.0119291 -0.00389,0.0166528 -0.0028,0.005185 -0.00667,0.00827 -0.011594,0.009258 -0.00192,3.6148e-4 -0.00407,5.4224e-4 -0.00645,5.4224e-4 h -0.029333 v -0.0544645 h 0.027699 c 0.00327,0 0.00651,5.968e-4 0.00973,0.001789 z m 0.076244,0.0526733 h -0.026535 c -0.00409,0 -0.00803,-9.3441e-4 -0.011826,-0.002801 -0.0041,-0.002023 -0.00722,-0.005237 -0.00937,-0.009648 -0.00215,-0.004407 -0.00323,-0.009258 -0.00323,-0.0145493 0,-0.005236 0.00103,-0.009984 0.00311,-0.0142377 0.00227,-0.004617 0.00545,-0.007987 0.00949,-0.0101136 0.00224,-0.001138 0.00436,-0.001943 0.00642,-0.002412 0.00205,-4.7064e-4 0.0044,-7.0254e-4 0.00704,-7.0254e-4 h 0.02459 v 0.009648 h -0.02272 c -0.00202,0 -0.00372,2.7254e-4 -0.0051,8.1847e-4 -0.00138,5.4224e-4 -0.00273,0.001517 -0.00408,0.002916 -0.00135,0.001402 -0.00227,0.002761 -0.0028,0.004088 -5.184e-4,0.001323 -7.777e-4,0.002967 -7.777e-4,0.00494 h 0.035792 v 0.009648 h -0.035791 c 0,0.00176 2.337e-4,0.003304 6.992e-4,0.00463 4.706e-4,0.00132 0.00133,0.002684 0.00255,0.004083 0.00122,0.001402 0.0025,0.002462 0.00383,0.003188 0.00134,7.264e-4 0.00291,0.001091 0.00472,0.001091 h 0.023993 z m 0.072198,-0.0544644 -0.026143,0.0546189 H 1.1880576 L 1.1626107,0.3757914 h 0.014861 l 0.017664,0.0414705 0.017816,-0.0414705 z m 0.058115,0.0544644 h -0.026536 c -0.0041,0 -0.00803,-9.3442e-4 -0.011828,-0.002801 -0.0041,-0.002023 -0.00722,-0.005237 -0.00937,-0.009648 -0.00215,-0.004407 -0.00322,-0.009258 -0.00322,-0.0145493 0,-0.005236 0.00103,-0.009984 0.00311,-0.0142377 0.00227,-0.004617 0.00545,-0.007987 0.00949,-0.0101136 0.00224,-0.001138 0.00438,-0.001943 0.00642,-0.002412 0.00205,-4.7064e-4 0.0044,-7.0253e-4 0.00704,-7.0253e-4 h 0.02459 v 0.009648 h -0.022719 c -0.00202,0 -0.00372,2.7253e-4 -0.0051,8.1846e-4 -0.00138,5.4225e-4 -0.00273,0.001517 -0.00408,0.002916 -0.00135,0.001402 -0.00227,0.002761 -0.0028,0.004088 -5.184e-4,0.001323 -7.776e-4,0.002967 -7.776e-4,0.00494 h 0.035791 v 0.009648 H 1.250148 c 0,0.00176 2.323e-4,0.003304 6.992e-4,0.00463 4.671e-4,0.00132 0.00133,0.002684 0.00255,0.004083 0.00122,0.001402 0.0025,0.002462 0.00383,0.003188 0.00134,7.2639e-4 0.00291,0.001091 0.00472,0.001091 h 0.023992 z m 0.058347,0 h -0.019684 c -0.00576,0 -0.010379,-6.4795e-4 -0.01385,-0.001943 -0.00441,-0.00166 -0.00757,-0.004514 -0.00949,-0.00856 -7.264e-4,-0.001554 -0.00123,-0.003045 -0.00151,-0.004474 -2.847e-4,-0.001426 -4.264e-4,-0.003069 -4.264e-4,-0.00494 v -0.0345446 h 0.014006 v 0.034079 c 0,0.001554 1.813e-4,0.00292 5.457e-4,0.004083 3.614e-4,0.001169 0.00101,0.002327 0.00194,0.003463 0.0013,0.001657 0.0028,0.002748 0.00451,0.003267 0.00171,5.1835e-4 0.00389,7.7754e-4 0.00654,7.7754e-4 h 0.017426 z m 0.05804,-0.0276222 c 0,-0.005339 -0.00127,-0.009593 -0.00382,-0.0127577 -0.00286,-0.003529 -0.00708,-0.005293 -0.012684,-0.005293 -0.00551,0 -0.00964,0.001896 -0.012445,0.00568 -0.00234,0.003165 -0.00349,0.007289 -0.00349,0.0123717 0,0.005864 9.309e-4,0.0101932 0.0028,0.0129947 0.0026,0.003892 0.00739,0.005836 0.014398,0.005836 0.00592,0 0.010061,-0.001896 0.012445,-0.005678 0.00186,-0.00296 0.0028,-0.007341 0.0028,-0.0131542 z m 0.013845,3.1062e-4 c 0,0.0105832 -0.00293,0.0181566 -0.00879,0.0227216 -0.00477,0.003681 -0.011715,0.005524 -0.020852,0.005524 -0.010124,0 -0.017583,-0.002129 -0.022407,-0.006382 -0.00529,-0.004668 -0.00794,-0.012166 -0.00794,-0.0224851 0,-0.008456 0.00235,-0.0150415 0.00708,-0.0197653 0.00513,-0.005134 0.012802,-0.007702 0.023031,-0.007702 0.011252,0 0.019193,0.002465 0.023806,0.007393 0.00405,0.004356 0.00606,0.0112554 0.00606,0.0206942 z m 0.053219,-0.009802 c 0,-0.002336 -9.616e-4,-0.004277 -0.00287,-0.005836 -0.00192,-0.001554 -0.00412,-0.002332 -0.00662,-0.002332 h -0.017355 v 0.0168824 h 0.017741 c 0.00254,0 0.0047,-8.2872e-4 0.00645,-0.002489 0.00176,-0.001657 0.00266,-0.003732 0.00266,-0.006224 z m 0.015169,6.9911e-4 c 0,0.004828 -0.00184,0.008937 -0.00557,0.012336 -0.00371,0.003397 -0.00814,0.005093 -0.013294,0.005093 h -0.023149 v 0.0189848 h -0.013383 v -0.0544645 h 0.037269 c 0.00581,0 0.0104,0.001995 0.013771,0.005992 0.00291,0.003475 0.00435,0.007496 0.00435,0.0120588 z m 0.08138,0.0364154 h -0.011744 v -0.0416273 l -0.015404,0.0416273 h -0.014005 l -0.015871,-0.0425593 v 0.0425594 h -0.011357 v -0.0544645 h 0.018208 l 0.015951,0.0431043 0.015325,-0.0431043 h 0.018906 z m 0.064186,0 h -0.026535 c -0.0041,0 -0.00803,-9.3443e-4 -0.011818,-0.002801 -0.0041,-0.002023 -0.00723,-0.005237 -0.00937,-0.009648 -0.00214,-0.004407 -0.00323,-0.009258 -0.00323,-0.0145492 0,-0.005236 0.00103,-0.009984 0.00311,-0.0142377 0.00227,-0.004617 0.00544,-0.007987 0.0095,-0.0101136 0.00224,-0.001138 0.00436,-0.001943 0.00642,-0.002412 0.00205,-4.7061e-4 0.0044,-7.0251e-4 0.00704,-7.0251e-4 h 0.024589 v 0.009648 h -0.022724 c -0.00202,0 -0.00372,2.7255e-4 -0.0051,8.1849e-4 -0.00138,5.4222e-4 -0.00274,0.001517 -0.00408,0.002916 -0.00135,0.001402 -0.00227,0.002761 -0.0028,0.004088 -5.185e-4,0.001323 -7.777e-4,0.002967 -7.777e-4,0.00494 h 0.035792 v 0.009648 h -0.035792 c 0,0.00176 2.336e-4,0.003301 6.991e-4,0.00463 4.706e-4,0.00132 0.00133,0.002684 0.00255,0.004083 0.00122,0.001402 0.0025,0.002462 0.00383,0.003188 0.00134,7.264e-4 0.00291,0.001091 0.00472,0.001091 h 0.023994 z m 0.069941,0 h -0.017277 l -0.026296,-0.0403021 v 0.040302 h -0.012996 v -0.0544645 h 0.017506 l 0.025831,0.0408501 v -0.0408501 h 0.013234 z m 0.063331,-0.0450485 h -0.020307 v 0.045203 H 1.7304725 V 0.3852075 h -0.019995 v -0.009258 h 0.05291 z m 0.083946,0.0450485 h -0.012057 v -0.0544645 h 0.012057 z m 0.038747,-0.0544645 -0.024197,0.0268422 0.02342,0.0276222 h -0.016885 l -0.020694,-0.0276975 0.021472,-0.026767 z m 0.025826,0.0544645 h -0.014549 v -0.0544645 h 0.014546 z m 0.063328,-0.0450485 h -0.020307 v 0.045203 H 1.9423218 V 0.3852075 h -0.019995 v -0.009258 h 0.05291 z M 1.6856165,0.2247044 c 0,-0.0210003 -0.00315,-0.0382106 -0.00942,-0.0516301 -0.008,-0.0168864 -0.020134,-0.0253304 -0.036367,-0.0253304 h -0.063325 v 0.14710445 l 0.067546,3.2356e-4 c 0.014725,0 0.02565,-0.007685 0.032796,-0.0230572 0.00584,-0.0125536 0.00877,-0.0283581 0.00877,-0.0474103 z m -0.00584,-0.11040866 c 0.018184,0.006929 0.03258,0.0211077 0.043185,0.0425388 0.00974,0.0196994 0.014621,0.0419994 0.014621,0.0668962 0,0.0266274 -0.00541,0.049792 -0.016235,0.0694914 -0.011685,0.0216486 -0.02782,0.034533 -0.048388,0.038644 -0.008,0.001514 -0.016991,0.002274 -0.026953,0.002274 H 1.5235774 V 0.10682539 H 1.639181 c 0.013638,0 0.027168,0.00249 0.040596,0.00747 z M 1.813569,0.33413942 H 1.7632318 V 0.10682511 h 0.050333 z M 1.9752815,0.10682511 1.8742882,0.21886081 1.9720339,0.33413903 H 1.9015683 L 1.8151868,0.21853308 1.9048129,0.10682481 h 0.07047 z M 0.88359135,0.33262353 h -0.0639155 l -0.058742,-0.088275 h -0.0610085 v 0.088275 H 0.64625044 V 0.1062774 h 0.16555647 c 0.0187527,0 0.0342764,0.007276 0.0465603,0.021826 0.0122898,0.0145537 0.0184331,0.0317429 0.0184331,0.0515765 0,0.0157371 -0.005281,0.0291018 -0.0158446,0.0400968 -0.0105621,0.0109931 -0.0239285,0.0178908 -0.0400968,0.020693 z"
     inkscape:connector-curvature="0" /></svg>